<svg xmlns="http://www.w3.org/2000/svg" xmlns:xlink="http://www.w3.org/1999/xlink" width="512" height="512" viewBox="0 0 512 512">
  <defs>
    <linearGradient id="linear-gradient" y1="1" x2="1" gradientUnits="objectBoundingBox">
      <stop offset="0" stop-color="#641be6"/>
      <stop offset="1" stop-color="#a0eefa"/>
    </linearGradient>
    <linearGradient id="linear-gradient-2" x1="0.124" y1="0.878" x2="0.88" y2="0.125" gradientUnits="objectBoundingBox">
      <stop offset="0" stop-color="#1e0845"/>
      <stop offset="1" stop-color="#04414a"/>
    </linearGradient>
    <linearGradient id="linear-gradient-3" x1="0.124" y1="0.878" x2="0.88" y2="0.125" gradientUnits="objectBoundingBox">
      <stop offset="0" stop-color="#641be6"/>
      <stop offset="1" stop-color="#16d3f3"/>
    </linearGradient>
    <linearGradient id="linear-gradient-5" x1="0.763" y1="-0.698" x2="0.073" y2="2.102" gradientUnits="objectBoundingBox">
      <stop offset="0" stop-color="#1e0845"/>
      <stop offset="1" stop-color="#641be6"/>
    </linearGradient>
    <clipPath id="clip-settings">
      <rect width="512" height="512"/>
    </clipPath>
  </defs>
  <g id="settings" clip-path="url(#clip-settings)">
    <path id="Path_13" data-name="Path 13" d="M5.745,0,167-44.771l128,48,96,144-80,208-144,16-160-32-48-176Z" transform="translate(88.998 92.771)" fill="url(#linear-gradient)"/>
    <path id="Path_12" data-name="Path 12" d="M201.6,58.886,206.2,36.1l-14.722-2.907L206.2,36.1a7.547,7.547,0,0,1,1.782-3.563,200.915,200.915,0,0,1,32.069-2.532,212.464,212.464,0,0,1,32.069,2.438,7.554,7.554,0,0,1,1.782,3.563l4.595,22.879c2.719,13.5,12.377,23.63,23.911,28.412h0l1.407.563h0a39.348,39.348,0,0,0,37.039-3.094l19.316-12.94a6.926,6.926,0,0,1,3.844-1.219,209.965,209.965,0,0,1,24,20.535l.75.75h0a208.62,208.62,0,0,1,20.535,24,8.41,8.41,0,0,1-1.219,3.844l-12.94,19.316c-7.6,11.44-7.97,25.411-3.094,37.038h0l.563,1.407h0a39.3,39.3,0,0,0,28.412,23.911l22.786,4.595a7.547,7.547,0,0,1,3.563,1.782,209.984,209.984,0,0,1,2.438,31.881v.375a209.985,209.985,0,0,1-2.438,31.881,7.554,7.554,0,0,1-3.563,1.782l-22.6,4.782c-13.5,2.719-23.63,12.377-28.412,23.911h0l-.563,1.407h0a39.348,39.348,0,0,0,3.094,37.038l12.94,19.316a6.926,6.926,0,0,1,1.219,3.844A210.418,210.418,0,0,1,364.1,409.392a8.41,8.41,0,0,1-3.844-1.219l-19.316-12.94c-11.44-7.6-25.411-7.97-37.038-3.094h0l-1.407.563h0a39.3,39.3,0,0,0-23.911,28.412L273.991,443.9a7.547,7.547,0,0,1-1.782,3.563,212.132,212.132,0,0,1-64.138,0,7.554,7.554,0,0,1-1.782-3.563L201.6,421.207c-2.719-13.5-12.377-23.63-23.911-28.412h0l-1.407-.563h0a39.348,39.348,0,0,0-37.038,3.094l-19.316,12.94a6.926,6.926,0,0,1-3.845,1.219A210.418,210.418,0,0,1,70.7,364.1a8.41,8.41,0,0,1,1.219-3.845l12.94-19.316c7.6-11.44,7.97-25.411,3.094-37.039h0l-.563-1.406h0A39.3,39.3,0,0,0,58.98,278.586l-22.786-4.595a7.547,7.547,0,0,1-3.563-1.782,192.506,192.506,0,0,1-2.626-32.163,212.463,212.463,0,0,1,2.438-32.069,7.554,7.554,0,0,1,3.563-1.782L58.886,201.6c13.5-2.719,23.63-12.377,28.412-23.911h0l.563-1.407h0a39.348,39.348,0,0,0-3.094-37.038l-12.94-19.5a6.926,6.926,0,0,1-1.219-3.844A210.366,210.366,0,0,1,91.237,91.8l.75-.75h0a220.158,220.158,0,0,1,24.1-20.629,8.41,8.41,0,0,1,3.845,1.219l19.316,12.94c11.44,7.6,25.411,7.97,37.038,3.094h0l1.407-.563h0C189.318,82.329,198.976,72.2,201.6,58.7ZM240.047,0a242.379,242.379,0,0,0-40.7,3.469A13.236,13.236,0,0,0,194.1,5.439a37.465,37.465,0,0,0-17.441,24.755l-4.595,22.786a9.244,9.244,0,0,1-5.907,6.47h-.094l-1.594.656h-.094a9.79,9.79,0,0,1-8.814-.375L136.433,46.884a37.488,37.488,0,0,0-29.725-5.251,14.672,14.672,0,0,0-5.063,2.344A240.729,240.729,0,0,0,70.7,69.857h0l-.75.75h0a246.746,246.746,0,0,0-25.974,30.944,14.673,14.673,0,0,0-2.344,5.063,37.424,37.424,0,0,0,5.251,29.725l12.94,19.316a9.217,9.217,0,0,1,.375,8.814v.094l-.656,1.594h0v.094a9.244,9.244,0,0,1-6.47,5.907l-22.786,4.595A37.247,37.247,0,0,0,5.532,194.194a16.875,16.875,0,0,0-1.969,5.251A231.07,231.07,0,0,0,0,240.047a242.379,242.379,0,0,0,3.469,40.7,13.236,13.236,0,0,0,1.969,5.251,37.465,37.465,0,0,0,24.755,17.441l22.786,4.595a9.244,9.244,0,0,1,6.47,5.907v.094l.656,1.594v.094a9.79,9.79,0,0,1-.375,8.814L46.884,343.661a37.488,37.488,0,0,0-5.251,29.725,14.673,14.673,0,0,0,2.344,5.064,240.578,240.578,0,0,0,57.668,57.667,14.672,14.672,0,0,0,5.063,2.344,37.425,37.425,0,0,0,29.725-5.251l19.316-12.94a9.217,9.217,0,0,1,8.814-.375h.094l1.594.656h.094a9.244,9.244,0,0,1,5.907,6.47l4.595,22.786a37.247,37.247,0,0,0,17.441,24.755,16.875,16.875,0,0,0,5.251,1.969,240.406,240.406,0,0,0,81.391,0,13.236,13.236,0,0,0,5.251-1.969,37.465,37.465,0,0,0,17.441-24.755l4.595-22.786a9.244,9.244,0,0,1,5.907-6.47h.094l1.594-.656h.094a9.79,9.79,0,0,1,8.814.375l18.941,12.94a37.488,37.488,0,0,0,29.725,5.251,14.673,14.673,0,0,0,5.064-2.344,241.891,241.891,0,0,0,57.667-57.574,14.672,14.672,0,0,0,2.344-5.063,37.424,37.424,0,0,0-5.251-29.725l-12.94-19.316a9.217,9.217,0,0,1-.375-8.814v-.094l.656-1.594v-.094a9.244,9.244,0,0,1,6.47-5.907l22.786-4.595L446.9,288.619l2.907,14.722A37.247,37.247,0,0,0,474.561,285.9a16.875,16.875,0,0,0,1.969-5.251A240.153,240.153,0,0,0,480,240.141h0v-.375h0a240.992,240.992,0,0,0-3.469-40.508,13.235,13.235,0,0,0-1.969-5.251,37.465,37.465,0,0,0-24.755-17.441l-22.786-4.595a9.244,9.244,0,0,1-6.47-5.907v-.094l-.656-1.594v-.094a9.79,9.79,0,0,1,.375-8.814l12.94-19.035a37.488,37.488,0,0,0,5.251-29.725,14.672,14.672,0,0,0-2.344-5.063,246.42,246.42,0,0,0-25.88-30.85h0l-.844-.844h0a233.652,233.652,0,0,0-30.85-25.88,14.673,14.673,0,0,0-5.064-2.344,37.424,37.424,0,0,0-29.725,5.251L324.345,59.73a9.217,9.217,0,0,1-8.814.375h-.094l-1.594-.656h-.094a9.244,9.244,0,0,1-5.907-6.47l-4.595-22.786A37.247,37.247,0,0,0,285.806,5.439a16.874,16.874,0,0,0-5.251-1.969A238.48,238.48,0,0,0,240.047,0Z" transform="translate(16 16)" fill="url(#linear-gradient-2)"/>
    <path id="Path_10" data-name="Path 10" d="M215,62.8l4.9-24.3-15.7-3.1,15.7,3.1a8.049,8.049,0,0,1,1.9-3.8A214.268,214.268,0,0,1,256,32a226.584,226.584,0,0,1,34.2,2.6,8.056,8.056,0,0,1,1.9,3.8L297,62.8c2.9,14.4,13.2,25.2,25.5,30.3h0l1.5.6h0c12.3,5.2,27.3,4.8,39.5-3.3l20.6-13.8a7.387,7.387,0,0,1,4.1-1.3,223.918,223.918,0,0,1,25.6,21.9l.8.8h0a222.483,222.483,0,0,1,21.9,25.6,8.969,8.969,0,0,1-1.3,4.1l-13.8,20.6c-8.1,12.2-8.5,27.1-3.3,39.5h0l.6,1.5h0A41.908,41.908,0,0,0,449,214.8l24.3,4.9a8.049,8.049,0,0,1,3.8,1.9,223.937,223.937,0,0,1,2.6,34v.4a223.937,223.937,0,0,1-2.6,34,8.056,8.056,0,0,1-3.8,1.9L449.2,297c-14.4,2.9-25.2,13.2-30.3,25.5h0l-.6,1.5h0c-5.2,12.3-4.8,27.3,3.3,39.5l13.8,20.6a7.387,7.387,0,0,1,1.3,4.1,224.4,224.4,0,0,1-48.4,48.4,8.969,8.969,0,0,1-4.1-1.3l-20.6-13.8c-12.2-8.1-27.1-8.5-39.5-3.3h0l-1.5.6h0a41.908,41.908,0,0,0-25.5,30.3l-4.9,24.3a8.049,8.049,0,0,1-1.9,3.8,226.23,226.23,0,0,1-68.4,0,8.056,8.056,0,0,1-1.9-3.8l-5-24.2c-2.9-14.4-13.2-25.2-25.5-30.3h0l-1.5-.6h0c-12.3-5.2-27.3-4.8-39.5,3.3l-20.6,13.8a7.387,7.387,0,0,1-4.1,1.3,224.4,224.4,0,0,1-48.4-48.4,8.969,8.969,0,0,1,1.3-4.1l13.8-20.6c8.1-12.2,8.5-27.1,3.3-39.5h0l-.6-1.5h0a41.908,41.908,0,0,0-30.3-25.5l-24.3-4.9a8.049,8.049,0,0,1-3.8-1.9A205.3,205.3,0,0,1,32,256a226.583,226.583,0,0,1,2.6-34.2,8.056,8.056,0,0,1,3.8-1.9L62.8,215c14.4-2.9,25.2-13.2,30.3-25.5h0l.6-1.5h0c5.2-12.3,4.8-27.3-3.3-39.5L76.6,127.7a7.387,7.387,0,0,1-1.3-4.1,224.345,224.345,0,0,1,22-25.7l.8-.8h0a234.79,234.79,0,0,1,25.7-22,8.968,8.968,0,0,1,4.1,1.3l20.6,13.8c12.2,8.1,27.1,8.5,39.5,3.3h0l1.5-.6h0C201.9,87.8,212.2,77,215,62.6ZM256,0a258.487,258.487,0,0,0-43.4,3.7A14.115,14.115,0,0,0,207,5.8a39.954,39.954,0,0,0-18.6,26.4l-4.9,24.3c-.5,2.6-2.6,5.4-6.3,6.9h-.1l-1.7.7h-.1a10.441,10.441,0,0,1-9.4-.4L145.5,50a39.98,39.98,0,0,0-31.7-5.6,15.648,15.648,0,0,0-5.4,2.5,256.729,256.729,0,0,0-33,27.6h0l-.8.8h0a263.144,263.144,0,0,0-27.7,33,15.648,15.648,0,0,0-2.5,5.4A39.912,39.912,0,0,0,50,145.4L63.8,166c1.5,2.2,2,5.7.4,9.4v.1l-.7,1.7h0v.1c-1.5,3.7-4.3,5.8-6.9,6.3l-24.3,4.9A39.722,39.722,0,0,0,5.9,207.1a18,18,0,0,0-2.1,5.6A246.427,246.427,0,0,0,0,256a258.487,258.487,0,0,0,3.7,43.4A14.115,14.115,0,0,0,5.8,305a39.954,39.954,0,0,0,26.4,18.6l24.3,4.9c2.6.5,5.4,2.6,6.9,6.3v.1l.7,1.7v.1a10.441,10.441,0,0,1-.4,9.4L50,366.5a39.98,39.98,0,0,0-5.6,31.7,15.648,15.648,0,0,0,2.5,5.4,256.566,256.566,0,0,0,61.5,61.5,15.647,15.647,0,0,0,5.4,2.5,39.912,39.912,0,0,0,31.7-5.6l20.6-13.8c2.2-1.5,5.7-2,9.4-.4h.1l1.7.7h.1c3.7,1.5,5.8,4.3,6.3,6.9l4.9,24.3a39.722,39.722,0,0,0,18.6,26.4,18,18,0,0,0,5.6,2.1,256.384,256.384,0,0,0,86.8,0,14.115,14.115,0,0,0,5.6-2.1,39.954,39.954,0,0,0,18.6-26.4l4.9-24.3c.5-2.6,2.6-5.4,6.3-6.9h.1l1.7-.7h.1a10.441,10.441,0,0,1,9.4.4L366.5,462a39.98,39.98,0,0,0,31.7,5.6,15.647,15.647,0,0,0,5.4-2.5,257.967,257.967,0,0,0,61.5-61.4,15.647,15.647,0,0,0,2.5-5.4,39.912,39.912,0,0,0-5.6-31.7L448.2,346c-1.5-2.2-2-5.7-.4-9.4v-.1l.7-1.7v-.1c1.5-3.7,4.3-5.8,6.9-6.3l24.3-4.9-3.1-15.7,3.1,15.7a39.722,39.722,0,0,0,26.4-18.6,18,18,0,0,0,2.1-5.6,256.112,256.112,0,0,0,3.7-43.2h0v-.4h0a257.007,257.007,0,0,0-3.7-43.2,14.115,14.115,0,0,0-2.1-5.6,39.954,39.954,0,0,0-26.4-18.6l-24.3-4.9c-2.6-.5-5.4-2.6-6.9-6.3V177l-.7-1.7v-.1a10.441,10.441,0,0,1,.4-9.4L462,145.5a39.98,39.98,0,0,0,5.6-31.7,15.647,15.647,0,0,0-2.5-5.4,262.8,262.8,0,0,0-27.6-32.9h0l-.9-.9h0A249.177,249.177,0,0,0,403.7,47a15.648,15.648,0,0,0-5.4-2.5,39.912,39.912,0,0,0-31.7,5.6L345.9,63.7c-2.2,1.5-5.7,2-9.4.4h-.1l-1.7-.7h-.1c-3.7-1.5-5.8-4.3-6.3-6.9l-4.9-24.3A39.722,39.722,0,0,0,304.8,5.8a18,18,0,0,0-5.6-2.1A254.329,254.329,0,0,0,256,0Z" transform="translate(1 1)" fill="url(#linear-gradient-3)"/>
    <path id="Path_11" data-name="Path 11" d="M188.162,54.961l4.288-21.267-13.74-2.713,13.74,2.713a7.044,7.044,0,0,1,1.663-3.326,187.521,187.521,0,0,1,29.931-2.363,198.3,198.3,0,0,1,29.931,2.275,7.05,7.05,0,0,1,1.663,3.326l4.288,21.354a36.863,36.863,0,0,0,22.317,26.518h0l1.313.525h0a36.725,36.725,0,0,0,34.569-2.888l18.029-12.077a6.465,6.465,0,0,1,3.588-1.138,195.968,195.968,0,0,1,22.4,19.166l.7.7h0a194.709,194.709,0,0,1,19.166,22.4,7.849,7.849,0,0,1-1.138,3.588L368.8,129.788a36.707,36.707,0,0,0-2.888,34.569h0l.525,1.313h0a36.677,36.677,0,0,0,26.518,22.317l21.267,4.288a7.044,7.044,0,0,1,3.326,1.663,195.984,195.984,0,0,1,2.275,29.756v.35a195.984,195.984,0,0,1-2.275,29.756,7.05,7.05,0,0,1-3.326,1.663l-21.092,4.463a36.863,36.863,0,0,0-26.518,22.317h0l-.525,1.313h0a36.725,36.725,0,0,0,2.888,34.569l12.077,18.029a6.465,6.465,0,0,1,1.138,3.588A196.39,196.39,0,0,1,339.829,382.1a7.849,7.849,0,0,1-3.588-1.138l-18.029-12.077A36.707,36.707,0,0,0,283.643,366h0l-1.313.525h0a36.677,36.677,0,0,0-22.317,26.518l-4.288,21.267a7.044,7.044,0,0,1-1.663,3.326,197.99,197.99,0,0,1-59.862,0,7.05,7.05,0,0,1-1.663-3.326l-4.376-21.179a36.863,36.863,0,0,0-22.317-26.518h0l-1.313-.525h0a36.725,36.725,0,0,0-34.569,2.888l-18.029,12.077a6.465,6.465,0,0,1-3.588,1.138,196.39,196.39,0,0,1-42.358-42.358,7.849,7.849,0,0,1,1.138-3.588L79.2,318.212a36.707,36.707,0,0,0,2.888-34.569h0l-.525-1.313h0a36.677,36.677,0,0,0-26.518-22.317l-21.267-4.288a7.044,7.044,0,0,1-3.326-1.663,179.673,179.673,0,0,1-2.45-30.018,198.3,198.3,0,0,1,2.275-29.931,7.05,7.05,0,0,1,3.326-1.663l21.354-4.288a36.863,36.863,0,0,0,26.518-22.317h0L82,164.532h0a36.725,36.725,0,0,0-2.888-34.569l-12.077-18.2a6.465,6.465,0,0,1-1.138-3.588A196.341,196.341,0,0,1,85.154,85.679l.7-.7h0a205.481,205.481,0,0,1,22.492-19.254,7.849,7.849,0,0,1,3.588,1.138L129.963,78.94a36.707,36.707,0,0,0,34.569,2.888h0l1.313-.525h0c10.852-4.463,19.866-13.915,22.317-26.518ZM224.044,0a226.22,226.22,0,0,0-37.982,3.238,12.354,12.354,0,0,0-4.9,1.838,34.967,34.967,0,0,0-16.278,23.1l-4.288,21.267a8.628,8.628,0,0,1-5.514,6.039h-.088L153.5,56.1h-.088a9.138,9.138,0,0,1-8.227-.35l-17.853-11.99a34.989,34.989,0,0,0-27.743-4.9,13.694,13.694,0,0,0-4.726,2.188A224.681,224.681,0,0,0,65.988,65.2h0l-.7.7h0A230.3,230.3,0,0,0,41.046,94.781a13.694,13.694,0,0,0-2.188,4.726,34.93,34.93,0,0,0,4.9,27.743l12.077,18.029a8.6,8.6,0,0,1,.35,8.227v.088l-.613,1.488h0v.088a8.628,8.628,0,0,1-6.039,5.514L28.268,164.97a34.764,34.764,0,0,0-23.1,16.278,15.75,15.75,0,0,0-1.838,4.9A215.666,215.666,0,0,0,0,224.044a226.221,226.221,0,0,0,3.238,37.982,12.354,12.354,0,0,0,1.838,4.9,34.967,34.967,0,0,0,23.1,16.278l21.267,4.288a8.628,8.628,0,0,1,6.039,5.514v.088l.613,1.488v.088a9.138,9.138,0,0,1-.35,8.227L43.759,320.75a34.989,34.989,0,0,0-4.9,27.743,13.7,13.7,0,0,0,2.188,4.726,224.54,224.54,0,0,0,53.823,53.823,13.694,13.694,0,0,0,4.726,2.188,34.93,34.93,0,0,0,27.743-4.9l18.029-12.077a8.6,8.6,0,0,1,8.227-.35h.088l1.488.613h.088a8.628,8.628,0,0,1,5.514,6.039l4.288,21.267a34.764,34.764,0,0,0,16.278,23.1,15.75,15.75,0,0,0,4.9,1.838,224.379,224.379,0,0,0,75.965,0,12.354,12.354,0,0,0,4.9-1.838,34.967,34.967,0,0,0,16.278-23.1l4.288-21.267a8.628,8.628,0,0,1,5.514-6.039h.088l1.488-.613h.088a9.138,9.138,0,0,1,8.227.35l17.678,12.077a34.989,34.989,0,0,0,27.743,4.9,13.7,13.7,0,0,0,4.726-2.188,225.766,225.766,0,0,0,53.823-53.736,13.7,13.7,0,0,0,2.188-4.726,34.929,34.929,0,0,0-4.9-27.743l-12.077-18.029a8.6,8.6,0,0,1-.35-8.227v-.088l.613-1.488v-.088a8.628,8.628,0,0,1,6.039-5.514l21.267-4.288-2.713-13.74,2.713,13.74a34.764,34.764,0,0,0,23.1-16.278,15.75,15.75,0,0,0,1.838-4.9A224.142,224.142,0,0,0,448,224.131h0v-.35h0a224.925,224.925,0,0,0-3.238-37.807,12.353,12.353,0,0,0-1.838-4.9,34.967,34.967,0,0,0-23.1-16.278l-21.267-4.288a8.628,8.628,0,0,1-6.039-5.514v-.088l-.613-1.488v-.088a9.138,9.138,0,0,1,.35-8.227l12.077-17.766a34.989,34.989,0,0,0,4.9-27.743,13.694,13.694,0,0,0-2.188-4.726,229.992,229.992,0,0,0-24.155-28.793h0l-.788-.788h0a218.076,218.076,0,0,0-28.793-24.155,13.7,13.7,0,0,0-4.726-2.188,34.929,34.929,0,0,0-27.743,4.9l-18.116,11.9a8.6,8.6,0,0,1-8.227.35h-.088l-1.488-.613h-.088a8.628,8.628,0,0,1-5.514-6.039L283.03,28.181a34.764,34.764,0,0,0-16.278-23.1,15.75,15.75,0,0,0-4.9-1.838A222.582,222.582,0,0,0,224.044,0Z" transform="translate(32 32)" fill="url(#linear-gradient-2)"/>
    <circle id="Ellipse_1" data-name="Ellipse 1" cx="104" cy="104" r="104" transform="translate(294.067 398.067) rotate(-150)" fill="url(#linear-gradient-5)"/>
  </g>
</svg>
