<svg xmlns="http://www.w3.org/2000/svg" xmlns:xlink="http://www.w3.org/1999/xlink" width="512" height="512" viewBox="0 0 512 512">
  <defs>
    <linearGradient id="linear-gradient" y1="1" x2="1" gradientUnits="objectBoundingBox">
      <stop offset="0" stop-color="#1e0845"/>
      <stop offset="1" stop-color="#04414a"/>
    </linearGradient>
    <linearGradient id="linear-gradient-2" y1="1" x2="1" gradientUnits="objectBoundingBox">
      <stop offset="0" stop-color="#641be6"/>
      <stop offset="1" stop-color="#16d3f3"/>
    </linearGradient>
    <linearGradient id="linear-gradient-3" x1="0.095" y1="1.017" x2="0.901" y2="-0.018" gradientUnits="objectBoundingBox">
      <stop offset="0" stop-color="#641be6"/>
      <stop offset="1" stop-color="#1e0845"/>
    </linearGradient>
    <linearGradient id="linear-gradient-4" x1="0.095" y1="1.017" x2="0.901" y2="-0.018" gradientUnits="objectBoundingBox">
      <stop offset="0" stop-color="#641be6"/>
      <stop offset="1" stop-color="#50777d"/>
    </linearGradient>
    <clipPath id="clip-tasker">
      <rect width="512" height="512"/>
    </clipPath>
  </defs>
  <g id="tasker" clip-path="url(#clip-tasker)">
    <g id="Icon" transform="translate(-31.817 -31.513)">
      <path id="Path_3" data-name="Path 3" d="M94.681,0H416.6c52.291,0,94.681,34.788,94.681,77.7V433.576c0,42.914-42.39,77.7-94.681,77.7H94.681C42.39,511.278,0,476.49,0,433.576V77.7C0,34.788,42.39,0,94.681,0Z" transform="translate(32.026 32)" fill="url(#linear-gradient)"/>
      <path id="Path_9" data-name="Path 9" d="M94.681,0H416.6c52.291,0,94.681,34.788,94.681,77.7V344.684c0,42.914-57.269,130.075-109.56,130.075L120.888,146.08C113.452,180.677,0,228.573,0,208.63V77.7C0,34.788,42.39,0,94.681,0Z" transform="translate(32.026 32)" fill="url(#linear-gradient-2)"/>
      <path id="Path_7" data-name="Path 7" d="M163.544,10.1l25.115,33.518L441.738,381.025l99.01-136.2,18.16-25.018-.335,105.629-89.617,123H415.529L164.317,114.036l-99.01,136.3L47.147,275.35l-.03-105.126L138.913,44,163.544,10.2Z" transform="translate(-15.091 94.837)" fill="url(#linear-gradient-3)"/>
      <path id="Path_6" data-name="Path 6" d="M163.544,10.1l25.115,33.518L441.738,381.025l99.01-136.2,18.16-25.018-.335,105.629-91.43,125.716-24.632,33.808L417.4,451.443,164.317,114.036l-99.01,136.3L47.147,275.35l-.03-105.126L138.913,44,163.544,10.2Z" transform="translate(-15.3 58.42)" fill="url(#linear-gradient-4)"/>
    </g>
  </g>
</svg>
